<?xml version="1.0" standalone="no"?><!DOCTYPE svg PUBLIC "-//W3C//DTD SVG 1.1//EN" "http://www.w3.org/Graphics/SVG/1.1/DTD/svg11.dtd"><svg t="1589453157716" class="icon" viewBox="0 0 1024 1024" version="1.1" xmlns="http://www.w3.org/2000/svg" p-id="1411" xmlns:xlink="http://www.w3.org/1999/xlink" width="200" height="200"><defs><style type="text/css"></style></defs><path d="M845.8752 116.43904 178.1248 116.43904c-34.22208 0-62.06464 27.83232-62.06464 62.04416l0 667.0336c0 34.21184 27.84256 62.0544 62.06464 62.0544l667.76064 0c34.22208 0 62.06464-27.84256 62.06464-62.0544L907.95008 178.4832C907.93984 144.26112 880.09728 116.43904 845.8752 116.43904zM803.81952 187.06432c14.68416 0 26.58304 11.90912 26.58304 26.59328 0 14.6944-11.89888 26.59328-26.58304 26.59328-14.70464 0-26.60352-11.90912-26.60352-26.59328C777.216 198.97344 789.12512 187.06432 803.81952 187.06432zM708.51584 187.06432c14.70464 0 26.60352 11.90912 26.60352 26.59328 0 14.6944-11.89888 26.59328-26.60352 26.59328-14.68416 0-26.58304-11.90912-26.58304-26.59328C681.94304 198.97344 693.84192 187.06432 708.51584 187.06432zM837.0176 306.26816l0 242.81088L186.9824 549.07904 186.9824 306.26816 837.0176 306.26816zM186.9824 836.64896 186.9824 576.38912l650.0352 0 0 260.27008L186.9824 836.6592z" p-id="1412" fill="#2c2c2c"></path></svg>