<?xml version="1.0" standalone="no"?>
<!DOCTYPE svg PUBLIC "-//W3C//DTD SVG 1.1//EN" "http://www.w3.org/Graphics/SVG/1.1/DTD/svg11.dtd" >
<!--
2013-9-30: Created.
-->
<svg>
<metadata>
Created by iconfont
</metadata>
<defs>

<font id="iconfont" horiz-adv-x="1024" >
  <font-face
    font-family="iconfont"
    font-weight="500"
    font-stretch="normal"
    units-per-em="1024"
    ascent="896"
    descent="-128"
  />
    <missing-glyph />
    
    <glyph glyph-name="chuangkouwindow29" unicode="&#58958;" d="M845.8752 779.56096 178.1248 779.56096c-34.22208 0-62.06464-27.83232-62.06464-62.04416l0-667.0336c0-34.21184 27.84256-62.0544 62.06464-62.0544l667.76064 0c34.22208 0 62.06464 27.84256 62.06464 62.0544L907.95008 717.5168C907.93984 751.73888 880.09728 779.56096 845.8752 779.56096zM803.81952 708.93568c14.68416 0 26.58304-11.90912 26.58304-26.59328 0-14.6944-11.89888-26.59328-26.58304-26.59328-14.70464 0-26.60352 11.90912-26.60352 26.59328C777.216 697.02656 789.12512 708.93568 803.81952 708.93568zM708.51584 708.93568c14.70464 0 26.60352-11.90912 26.60352-26.59328 0-14.6944-11.89888-26.59328-26.60352-26.59328-14.68416 0-26.58304 11.90912-26.58304 26.59328C681.94304 697.02656 693.84192 708.93568 708.51584 708.93568zM837.0176 589.73184l0-242.81088L186.9824 346.92096 186.9824 589.73184 837.0176 589.73184zM186.9824 59.35104 186.9824 319.61088l650.0352 0 0-260.27008L186.9824 59.3408z"  horiz-adv-x="1024" />

    
    <glyph glyph-name="kuozhangongneng" unicode="&#59963;" d="M359.024246 540.411446H133.844561A119.057489 119.057489 0 0 0 15.051057 659.20495V777.206497A119.057489 119.057489 0 0 0 133.844561 896h225.179685a119.057489 119.057489 0 0 0 118.793504-118.793503v-118.001547a119.057489 119.057489 0 0 0-118.793504-118.793504zM133.844561 816.804331A39.597834 39.597834 0 0 1 94.246726 777.206497v-118.001547a39.597834 39.597834 0 0 1 39.597835-39.597835h225.179685a39.597834 39.597834 0 0 1 39.597835 39.597835V777.206497a39.86182 39.86182 0 0 1-39.597835 39.597834zM362.192073-128H137.012387a119.057489 119.057489 0 0 0-118.793503 118.793503v359.020367a119.057489 119.057489 0 0 0 118.793503 118.793503h225.179686a119.057489 119.057489 0 0 0 118.793503-118.793503v-359.020367a119.057489 119.057489 0 0 0-118.793503-118.793503z m-225.179686 517.411704a39.597834 39.597834 0 0 1-39.597834-39.597834v-359.020367a39.597834 39.597834 0 0 1 39.597834-39.597834h225.179686a39.86182 39.86182 0 0 1 39.597834 39.597834v359.020367a39.597834 39.597834 0 0 1-39.597834 39.597834zM886.467402-128h-224.9157a119.057489 119.057489 0 0 0-118.793504 118.793503v118.001547a119.057489 119.057489 0 0 0 118.793504 118.793504h224.9157a118.793503 118.793503 0 0 0 118.793503-118.793504v-118.001547a118.793503 118.793503 0 0 0-118.793503-118.793503z m-224.9157 276.392885a39.597834 39.597834 0 0 1-39.597835-39.597835v-118.001547a39.597834 39.597834 0 0 1 39.597835-39.597834h224.9157a39.597834 39.597834 0 0 1 39.597834 39.597834v118.001547a39.597834 39.597834 0 0 1-39.597834 39.597835zM889.899214 299.392627h-225.179685a119.057489 119.057489 0 0 0-118.793504 118.793503V777.206497a119.057489 119.057489 0 0 0 118.793504 118.793503h225.179685a119.057489 119.057489 0 0 0 118.793503-118.793503v-359.020367a119.057489 119.057489 0 0 0-118.793503-118.793503zM664.719529 816.804331a39.597834 39.597834 0 0 1-39.597835-39.597834v-359.020367a39.597834 39.597834 0 0 1 39.597835-39.597834h225.179685a39.597834 39.597834 0 0 1 39.597834 39.597834V777.206497a39.86182 39.86182 0 0 1-39.597834 39.597834z"  horiz-adv-x="1024" />

    
    <glyph glyph-name="quanxian" unicode="&#58902;" d="M526.421333 896l425.002667-155.050667a38.229333 38.229333 0 0 0 26.965333-36.906666v-286.677334c0-341.034667-371.498667-490.837333-462.421333-537.386666a37.717333 37.717333 0 0 0-33.877333 0C390.912-73.514667 43.349333 74.709333 43.349333 415.317333V703.018667a39.466667 39.466667 0 0 0 26.112 36.821333L500.522667 896h25.898666z m-15.573333-255.018667a127.488 127.488 0 0 1-41.898667-247.936 38.869333 38.869333 0 0 1-0.597333-7.082666v-212.48a42.496 42.496 0 0 1 84.992 0v212.48a37.376 37.376 0 0 1-0.64 7.04 127.573333 127.573333 0 0 1-41.813333 247.978666z"  horiz-adv-x="1024" />

    
    <glyph glyph-name="zuzhiguanli" unicode="&#58903;" d="M78.769231 147.928615L472.615385-128v393.609846L78.769231 541.538462zM551.384615 265.373538V-128l393.846154 276.164923V541.538462zM531.968 896L118.153846 620.150154 531.534769 344.615385 945.230769 620.465231z"  horiz-adv-x="1024" />

    
    <glyph glyph-name="shujufenxi" unicode="&#58904;" d="M471.841391-105.69460900000001c154.401391 0 290.459826 77.913043 371.400348 196.518957 9.572174-2.31513 19.500522-3.82887 29.829565-3.82887a128.400696 128.400696 0 0 1 128.400696 128.400696 128.222609 128.222609 0 0 1-80.717913 119.095652c0.044522 3.116522 0.445217 6.233043 0.445217 9.349565 0 246.02713-197.587478 445.618087-442.724174 449.224348a128.178087 128.178087 0 0 1-118.873043 80.584348 128.400696 128.400696 0 0 1-128.400696-128.400696c0-7.123478 0.979478-14.06887 2.092522-20.925217C106.852174 644.808348 22.528 504.342261 22.528 343.930435c0-60.460522 12.109913-118.116174 33.792-170.785392a127.510261 127.510261 0 0 1-33.792-86.105043 128.445217 128.445217 0 0 1 128.445217-128.445217c23.151304 0 44.521739 6.589217 63.309913 17.363478a445.840696 445.840696 0 0 1 257.558261-81.65287zM260.897391 21.726609000000053c11.397565 19.144348 18.432 41.316174 18.432 65.268869a128.445217 128.445217 0 0 1-128.445217 128.400696c-13.801739 0-26.89113-2.671304-39.312696-6.767304a383.777391 383.777391 0 0 0-24.84313 135.212521 384.75687 384.75687 0 0 0 173.056 321.446957 127.777391 127.777391 0 0 1 99.817739-48.528696 127.955478 127.955478 0 0 1 126.70887 111.616c206.09113-7.568696 370.821565-176.617739 370.821565-384.534261l-0.089044-1.602782a127.955478 127.955478 0 0 1-112.283826-126.842435c0-37.220174 16.11687-70.433391 41.405218-93.94087a384.222609 384.222609 0 0 0-525.267479-99.728695z"  horiz-adv-x="1024" />

    
    <glyph glyph-name="chakanliebiao" unicode="&#58905;" d="M768 832a128 128 0 0 0 128-128v-640a128 128 0 0 0-128-128H256a128 128 0 0 0-128 128V704a128 128 0 0 0 128 128h512z m0-64H256a64 64 0 0 1-63.552-56.512L192 704v-640a64 64 0 0 1 56.512-63.552L256 0h512a64 64 0 0 1 63.552 56.512L832 64V704a64 64 0 0 1-56.512 63.552L768 768z m-448-576v-64H256v64h64z m448 0v-64H384v64h384zM320 320v-64H256V320h64z m448 0v-64H384V320h384zM320 448v-64H256V448h64z m448 0v-64H384V448h384zM608 640a32 32 0 0 0 0-64h-192a32 32 0 0 0 0 64h192z"  horiz-adv-x="1024" />

    
    <glyph glyph-name="liebiaochaxun" unicode="&#58906;" d="M768 864a160 160 0 0 0 159.68-149.504L928 704v-384h-64V704a96 96 0 0 1-86.784 95.552L768 800H256a96 96 0 0 1-95.552-86.784L160 704v-640a96 96 0 0 1 86.784-95.552L256-32h320v-64H256a160 160 0 0 0-159.68 149.504L96 64V704A160 160 0 0 0 245.504 863.68L256 864h512zM640 384a192 192 0 0 0 156.48-303.232l71.424-71.424a32 32 0 0 0-45.248-45.248l-71.424 71.424A192 192 0 1 0 640 384z m0-64a128 128 0 1 1 0-256 128 128 0 0 1 0 256zM448 384v-64H256V384h192z m320 128v-64H256V512h512z m0 128v-64H256V640h512z"  horiz-adv-x="1024" />

    
    <glyph glyph-name="chengxuguanli" unicode="&#58907;" d="M512 832l387.968-224v-448L512-64l-387.968 224v448L512 832z m323.968-297.856L543.936 365.504v-337.088l292.032 168.576V534.144z m-648 0v-337.152l291.968-168.512V365.568L302.336 468.096a32 32 0 0 0-0.384 0.192L187.968 534.144z m478.592 126.144L382.08 496.064 512 420.992l291.84 168.576-130.88 75.52a32 32 0 0 0-6.4-4.8zM512 758.08L220.032 589.568l97.92-56.576L609.92 701.568 512 758.08z"  horiz-adv-x="1024" />

    
    <glyph glyph-name="icon_yujing_N" unicode="&#58881;" d="M0 896h1024v-1024H0zM743.982545 180.363636h-18.618181V465.454545c0 104.727273-82.850909 190.976-189.346909 202.379637v19.083636A23.458909 23.458909 0 0 1 512 709.818182a23.458909 23.458909 0 0 1-24.017455-22.900364v-19.083636C381.486545 656.430545 298.682182 570.181818 298.682182 465.454545v-285.090909h-18.664727a23.458909 23.458909 0 0 1-24.017455-22.900363c0-12.660364 10.705455-22.900364 24.017455-22.900364h183.994181v-30.580364c0-25.320727 21.410909-45.800727 47.988364-45.800727 26.530909 0 47.988364 20.48 47.988364 45.800727v30.580364h183.994181c13.265455 0 24.017455 10.24 24.017455 22.900364a23.458909 23.458909 0 0 1-24.017455 22.900363z m-66.65309 0H346.670545V465.454545c0 87.179636 74.007273 157.789091 165.329455 157.789091s165.329455-70.609455 165.329455-157.789091v-285.090909z"  horiz-adv-x="1024" />

    
    <glyph glyph-name="icon-baocun" unicode="&#58882;" d="M0 896h1024v-1024H0zM621.242182 686.545455H266.24A56.785455 56.785455 0 0 1 209.454545 629.76v-491.52c0-31.371636 25.413818-56.785455 56.785455-56.785455h491.52a56.785455 56.785455 0 0 1 56.785455 56.785455V493.381818L621.242182 686.545455zM367.941818 629.76h171.194182v-162.443636a28.392727 28.392727 0 0 0-28.392727-28.392728H396.334545a28.392727 28.392727 0 0 0-28.392727 28.392728V629.76z m389.818182-491.52H266.24V629.76h44.916364v-162.443636c0-47.010909 38.167273-85.178182 85.178181-85.178182h114.408728c47.010909 0 85.178182 38.167273 85.178182 85.178182V629.76h1.861818l159.883636-159.930182v-331.589818h0.093091zM478.394182 495.709091a28.392727 28.392727 0 0 1 28.392727 28.392727V558.08a28.392727 28.392727 0 1 1-56.785454 0v-33.931636c0-15.685818 12.706909-28.392727 28.392727-28.392728z"  horiz-adv-x="1024" />

    
    <glyph glyph-name="icon-fangan" unicode="&#58883;" d="M0 896h1024v-1024H0zM642.699636 533.457455v35.84a5.957818 5.957818 0 0 1-5.911272 6.050909H351.557818a5.957818 5.957818 0 0 1-5.957818-6.050909v-35.84c0-3.258182 2.699636-5.957818 5.957818-5.957819h285.230546c3.258182 0 5.911273 2.653091 5.911272 5.957819zM351.557818 467.688727a5.957818 5.957818 0 0 1-5.957818-5.957818v-35.84c0-3.351273 2.699636-6.050909 5.957818-6.050909h136.657455c3.258182 0 5.957818 2.699636 5.957818 6.050909v35.84a5.957818 5.957818 0 0 1-5.957818 5.957818H351.557818z m106.961455-337.780363H286.208V656.011636h415.930182v-257.070545c0-3.258182 2.653091-5.957818 5.911273-5.957818h41.611636c3.258182 0 5.957818 2.653091 5.957818 5.957818V685.893818A23.831273 23.831273 0 0 1 731.834182 709.818182H256.512C243.339636 709.818182 232.727273 699.112727 232.727273 685.893818V100.072727c0-13.218909 10.612364-23.924364 23.738182-23.924363h202.007272c3.304727 0 6.004364 2.699636 6.004364 6.004363v41.844364a5.957818 5.957818 0 0 1-5.957818 5.957818z m331.031272-38.493091l-69.306181 69.725091a131.723636 131.723636 0 0 1 26.437818 79.36 131.118545 131.118545 0 0 1-130.699637 131.537454 131.118545 131.118545 0 0 1-130.746181-131.537454 131.118545 131.118545 0 0 1 130.746181-131.490909c26.577455 0 51.2 8.005818 71.866182 21.643636l70.376728-70.749091a5.771636 5.771636 0 0 1 4.142545-1.722182 5.957818 5.957818 0 0 1 4.189091 1.722182l22.993454 23.179636c2.327273 2.327273 2.327273 6.050909 0 8.378182z m-173.614545 65.396363a83.409455 83.409455 0 0 0-83.130182 83.688728c0 46.266182 37.189818 83.735273 83.176727 83.735272 45.986909 0 83.176727-37.469091 83.176728-83.735272 0-46.219636-37.236364-83.688727-83.176728-83.688728z"  horiz-adv-x="1024" />

    
    <glyph glyph-name="icon-fuwu" unicode="&#58884;" d="M0 896h1024v-1024H0zM512 709.818182L232.727273 616.727273v-279.272728a279.272727 279.272727 0 1 1 558.545454 0V616.727273l-279.272727 93.090909z m226.909091-372.363637a226.909091 226.909091 0 0 0-453.818182 0V577.442909L512 657.454545l226.909091-80.011636V337.454545z m-324.096 73.402182a26.112 26.112 0 0 1-37.003636 0 26.112 26.112 0 0 1 0-37.050182l94.114909-94.114909 1.536-1.489454a24.669091 24.669091 0 0 1 34.955636 0l162.583273 162.536727a24.669091 24.669091 0 0 1 0 34.955636l-2.048 2.048a24.669091 24.669091 0 0 1-35.002182 0l-143.034182-142.987636-76.101818 76.101818z"  horiz-adv-x="1024" />

    
    <glyph glyph-name="icon-daochu" unicode="&#58885;" d="M0 896h1024v-1024H0zM831.767273 404.48v0.093091l-1.024 1.489454a184.971636 184.971636 0 0 1-50.082909 49.57091 185.437091 185.437091 0 0 1-15.127273 61.905454 199.261091 199.261091 0 0 1-46.126546 64.558546 209.221818 209.221818 0 0 1-67.630545 43.333818A215.970909 215.970909 0 0 1 572.043636 640c-42.728727 0-82.013091-11.496727-116.736-34.071273a209.501091 209.501091 0 0 1-50.408727-45.521454 138.24 138.24 0 0 1-32.861091 3.909818c-17.221818 0-33.745455-3.025455-49.012363-9.029818-15.313455-6.004364-29.323636-14.987636-41.751273-26.624a118.597818 118.597818 0 0 1-37.422546-101.469091c-16.384-9.495273-30.906182-21.829818-43.287272-36.538182a152.343273 152.343273 0 0 1-37.608728-101.282909c0-22.062545 4.328727-42.961455 12.753455-62.370909 8.331636-19.083636 20.898909-36.770909 37.329454-52.177455 16.384-15.36 34.722909-27.182545 54.551273-34.955636 19.921455-7.912727 41.611636-11.869091 64.465455-11.869091h340.014545a196.421818 196.421818 0 0 1 72.052364 13.218909c22.388364 8.843636 43.008 22.062545 61.160727 39.237818 18.152727 17.221818 32.256 36.910545 41.658182 58.368 9.402182 21.597091 14.196364 45.009455 14.196364 69.492364a169.285818 169.285818 0 0 1-29.323637 96.162909zM226.490182 248.087273a101.469091 101.469091 0 0 0-8.331637 41.239272c0 12.567273 2.094545 24.576 6.190546 35.607273 4.096 11.031273 10.333091 21.457455 18.525091 31.185455l0.279273 0.325818c9.029818 10.705455 19.688727 19.549091 31.511272 26.065454l29.230546 16.104728-5.026909 32.442182a68.002909 68.002909 0 0 0 4.701091 36.770909l0.418909 1.024c3.444364 7.68 8.704 14.894545 15.639272 21.410909 7.121455 6.749091 15.127273 11.915636 23.877819 15.36 8.797091 3.397818 18.338909 5.12 28.392727 5.12 7.633455 0 14.894545-0.977455 21.410909-2.885818l33.047273-9.448728 20.386909 26.949818a155.368727 155.368727 0 0 0 125.114182 60.83491c21.364364 0 41.285818-3.584 59.159272-10.705455 18.152727-7.121455 34.909091-17.873455 49.710546-31.976727 14.987636-14.242909 26.344727-30.068364 33.885091-47.197091 6.237091-14.196364 9.960727-29.928727 10.984727-46.824727l1.396364-23.924364 20.48-13.218909a130.327273 130.327273 0 0 0 35.188363-33.466182l1.954909-2.792727a119.109818 119.109818 0 0 0 21.224728-68.142546c0-17.128727-3.304727-33.419636-9.774546-48.407272-6.516364-14.801455-16.384-28.532364-29.509818-40.913455-13.032727-12.381091-27.554909-21.736727-43.287273-27.927273-15.825455-6.144-33.140364-9.309091-51.386182-9.309091h-339.781818c-15.778909 0-30.440727 2.746182-43.752727 8.005819a114.967273 114.967273 0 0 0-36.864 23.691636 108.450909 108.450909 0 0 0-24.529455 33.605818v0.093091l-0.465454 1.349818z m250.507636 114.036363c7.354182 0 14.289455-2.746182 19.549091-7.819636l52.922182-51.432727V487.796364c0 14.801455 12.334545 26.856727 27.648 26.856727 15.173818 0 27.601455-12.101818 27.601454-26.903273v-184.785454l52.875637 51.386181c5.259636 5.12 12.101818 7.866182 19.549091 7.866182 7.354182 0 14.242909-2.792727 19.502545-7.912727a26.298182 26.298182 0 0 0 0-37.934545l-100.072727-97.28a27.834182 27.834182 0 0 0-19.549091-7.819637 27.694545 27.694545 0 0 0-19.549091 7.866182L457.541818 316.322909a26.298182 26.298182 0 0 0 0 37.981091c5.12 5.12 12.101818 7.866182 19.549091 7.866182z"  horiz-adv-x="1024" />

    
    <glyph glyph-name="icon-jiantou" unicode="&#58886;" d="M0 896h1024v-1024H0zM737.419636 518.144a21.876364 21.876364 0 0 0 1.768728-30.906182l-210.292364-235.659636A21.457455 21.457455 0 0 0 512 244.363636a21.504 21.504 0 0 0-16.896 7.168L284.858182 487.237818a21.876364 21.876364 0 0 0 1.768727 30.906182 21.504 21.504 0 0 0 30.394182-1.722182l194.978909-218.530909 195.072 218.530909a21.504 21.504 0 0 0 30.394182 1.722182z"  horiz-adv-x="1024" />

    
    <glyph glyph-name="icon-fuzhi" unicode="&#58887;" d="M0 896h1024v-1024H0zM732.346182 558.498909l-129.722182 137.774546a47.010909 47.010909 0 0 1-8.936727 7.307636c-0.837818 0.512-1.722182 1.024-2.606546 1.442909A41.704727 41.704727 0 0 1 571.764364 709.818182H401.268364c-24.203636 0-44.311273-20.48-44.311273-45.800727v-35.653819h-33.698909c-24.157091 0-43.985455-20.759273-43.985455-46.08V103.796364c0-25.320727 19.828364-45.568 43.985455-45.568H623.709091c24.157091 0 43.380364 20.247273 43.380364 45.568v35.886545h34.583272c24.203636 0 43.101091 20.48 43.101091 45.800727V526.242909c0 12.101818-4.235636 23.645091-12.381091 32.256zM594.245818 639.534545l82.990546-87.598545h-82.990546V639.581091z m29.090909-535.598545H323.025455V582.562909h33.978181v-397.125818c0-25.320727 20.154182-45.800727 44.311273-45.800727h222.068364v-35.653819z m77.730909 81.454545H400.616727V664.017455h149.876364v-112.03491c0-25.320727 20.154182-45.800727 44.311273-45.800727h106.170181v-320.698182z m-111.104 257.117091a22.341818 22.341818 0 0 1-21.829818 22.900364H456.471273a22.341818 22.341818 0 0 1-21.876364-22.900364c0-12.660364 9.774545-22.900364 21.876364-22.900363h111.662545c12.101818 0 21.876364 10.24 21.876364 22.900363z m77.730909-81.454545a22.341818 22.341818 0 0 1-21.876363 22.900364H456.471273a22.341818 22.341818 0 0 1-21.876364-22.900364c0-12.660364 9.774545-22.900364 21.876364-22.900364h189.346909c12.101818 0 21.876364 10.24 21.876363 22.900364z m-38.865454-81.454546a22.341818 22.341818 0 0 1-21.876364 22.900364H456.471273a22.341818 22.341818 0 0 1-21.876364-22.900364c0-12.660364 9.774545-22.900364 21.876364-22.900363h150.481454c12.101818 0 21.876364 10.24 21.876364 22.900363z"  horiz-adv-x="1024" />

    
    <glyph glyph-name="icon-gailan" unicode="&#58888;" d="M0 896h1024v-1024H0zM247.435636 679.284364v-590.568728a30.580364 30.580364 0 0 0-30.626909-30.533818 30.580364 30.580364 0 0 0-30.626909 30.533818V679.284364C186.181818 696.180364 199.866182 709.818182 216.808727 709.818182c16.942545 0 30.626909-13.637818 30.626909-30.533818z m-30.626909-560.034909h590.382546a30.580364 30.580364 0 0 0 0-61.114182l-590.382546 0.046545a30.580364 30.580364 0 0 0 0 61.114182zM410.065455 515.537455v-314.833455a30.580364 30.580364 0 0 0-30.62691-30.533818 30.580364 30.580364 0 0 0-30.580363 30.533818V515.537455a30.580364 30.580364 0 1 0 61.253818 0z m326.283636 110.312727v-425.099637a30.580364 30.580364 0 0 0-30.626909-30.580363 30.580364 30.580364 0 0 0-30.626909 30.533818V625.803636c0 16.896 13.684364 30.580364 30.626909 30.580364 16.896 0 30.626909-13.684364 30.626909-30.580364z m-163.933091-217.227637v-207.872a30.580364 30.580364 0 0 0-30.626909-30.580363 30.580364 30.580364 0 0 0-30.626909 30.533818V408.669091a30.626909 30.626909 0 1 0 61.253818 0z"  horiz-adv-x="1024" />

    
    <glyph glyph-name="icon-erweima" unicode="&#58889;" d="M0 896h1024v-1024H0zM797.696 468.992h-49.570909V388.654545h-70.842182V468.992h-120.459636V549.236364h-40.122182v30.72h40.122182v40.122181h40.168727V669.696h-40.168727V709.818182H427.008v-49.524364H507.345455v-30.72h-40.122182v-89.739636h40.122182v-70.842182h-40.122182v-40.215273H396.288v40.122182H346.717091v-40.122182h-30.72v40.122182H226.304v-40.122182h-40.029091v-49.570909h49.524364v40.168727h70.795636v-40.168727h40.122182v-80.244363h49.570909v80.244363h80.290909v40.215273h151.133091v-30.72h-120.413091v-49.524364h40.122182v-80.384h89.693091v49.570909h-40.122182v30.813091h160.581818v40.029091h30.72v-40.122182H837.818182v49.524364h-40.122182V468.992z m-321.163636-160.581818H427.054545v-129.815273h40.168728v-30.72h-40.168728v-49.570909H507.345455V58.181818h49.524363v40.122182h40.168727v49.570909H547.374545v-40.168727h-30.72v70.888727h80.29091v49.570909h-120.413091v80.244364z m-290.257455 40.075636h49.524364v-49.524363H186.274909v49.524363z m44.730182 151.226182h120.459636c24.669091 0 44.823273 20.154182 44.823273 44.823273V664.994909A44.916364 44.916364 0 0 1 351.464727 709.818182H231.005091A44.916364 44.916364 0 0 1 186.181818 664.994909v-120.459636c0-24.669091 20.154182-44.823273 44.823273-44.823273z m4.701091 49.570909V660.293818H346.763636V549.236364H235.706182z m30.72 80.244364H316.043636v-49.524364H266.472727V629.527273zM793.041455 709.818182h-120.459637a44.916364 44.916364 0 0 1-44.823273-44.823273v-120.459636c0-24.669091 20.154182-44.823273 44.823273-44.823273h120.459637c24.669091 0 44.823273 20.154182 44.823272 44.823273V664.994909A44.916364 44.916364 0 0 1 792.994909 709.818182z m-4.701091-49.524364V549.236364H677.236364V660.293818h111.010909z m-80.290909-30.72h49.524363V579.956364h-49.524363V629.527273z m84.992-361.285818h-120.459637a44.916364 44.916364 0 0 1-44.823273-44.823273v-120.459636c0-24.669091 20.154182-44.823273 44.823273-44.823273h120.459637c24.669091 0 44.823273 20.154182 44.823272 44.823273v120.459636a44.916364 44.916364 0 0 1-44.823272 44.823273z m-4.701091-49.570909v-111.010909H677.236364V218.763636h111.010909z m-80.290909-30.72h49.524363v-49.524364h-49.524363v49.524364z m-356.538182 80.290909H231.005091a44.916364 44.916364 0 0 1-44.823273-44.823273v-120.459636c0-24.669091 20.154182-44.823273 44.823273-44.823273h120.459636c24.669091 0 44.823273 20.154182 44.823273 44.823273v120.459636a44.916364 44.916364 0 0 1-44.823273 44.823273z m-4.747637-49.570909v-111.010909H235.706182V218.763636H346.763636z m-80.244363-30.72h49.524363v-49.524364H266.472727v49.524364z"  horiz-adv-x="1024" />

    
    <glyph glyph-name="icon-paixu" unicode="&#58890;" d="M0 896h1024v-1024H0zM672.581818 322.094545l-152.017454-167.237818a12.008727 12.008727 0 0 0-17.128728 0L351.464727 322.094545c-5.632 6.237091-0.558545 15.36 8.564364 15.36h303.941818c9.122909 0 14.196364-9.122909 8.564364-15.36zM672.581818 445.905455l-152.017454 167.237818a12.008727 12.008727 0 0 1-17.128728 0L351.464727 445.905455c-5.632-6.237091-0.558545-15.36 8.564364-15.36h303.941818c9.122909 0 14.196364 9.122909 8.564364 15.36z"  horiz-adv-x="1024" />

    
    <glyph glyph-name="icon-piliangdaoru" unicode="&#58891;" d="M0 896h1024v-1024H0zM744.727273 104.727273H279.272727V663.272727h279.272728v-139.636363a46.545455 46.545455 0 0 1 46.545454-46.545455h139.636364v-139.636364h46.545454V546.909091L619.52 709.818182H275.549091a41.890909 41.890909 0 0 1-42.821818-40.96v-570.181818a41.890909 41.890909 0 0 1 42.821818-40.494546h472.901818a41.890909 41.890909 0 0 1 42.821818 40.494546V197.818182h-46.545454v-93.090909z m0 422.167272V523.636364h-139.636364V659.083636l139.636364-132.189091zM861.090909 290.909091h-222.952727l53.061818 53.527273a23.365818 23.365818 0 1 1-33.047273 33.047272l-93.090909-93.090909a23.272727 23.272727 0 0 1 0-33.047272l93.090909-93.09091a23.365818 23.365818 0 1 1 33.047273 33.047273L638.138182 244.363636h222.952727a23.272727 23.272727 0 0 1 0 46.545455z"  horiz-adv-x="1024" />

    
    <glyph glyph-name="icon-guanbi" unicode="&#58892;" d="M0 896h1024v-1024H0zM512 709.818182a325.818182 325.818182 0 0 1-325.818182-325.818182 325.818182 325.818182 0 0 1 325.818182-325.818182 325.818182 325.818182 0 0 1 325.818182 325.818182 325.818182 325.818182 0 0 1-325.818182 325.818182z m130.653091-424.401455a22.900364 22.900364 0 0 0-32.442182-32.302545L512 351.557818l-98.210909-98.443636a22.714182 22.714182 0 0 0-32.349091-0.093091 22.900364 22.900364 0 0 0-0.093091 32.395636L479.650909 384 381.346909 482.583273a22.900364 22.900364 0 0 0 32.442182 32.302545L512 416.442182l98.210909 98.536727a22.900364 22.900364 0 0 0 32.442182-32.349091L544.349091 384l98.304-98.583273z"  horiz-adv-x="1024" />

    
    <glyph glyph-name="icon-lianjie" unicode="&#58893;" d="M0 896h1024v-1024H0zM532.945455 269.591273l-130.653091-130.792728a95.138909 95.138909 0 0 0-67.677091-28.066909c-25.6 0-49.617455 9.960727-67.677091 28.066909a95.371636 95.371636 0 0 0-28.113455 67.677091c0 25.6 9.914182 49.664 28.020364 67.677091l130.792727 130.792728a26.251636 26.251636 0 0 1 0 37.236363 26.251636 26.251636 0 0 1-37.236363 0L229.655273 311.389091A147.456 147.456 0 0 1 186.181818 206.475636c0-39.563636 15.406545-76.893091 43.473455-104.866909A147.921455 147.921455 0 0 1 334.522182 58.181818c38.027636 0 76.008727 14.429091 104.913454 43.426909l130.746182 130.792728a26.251636 26.251636 0 1 1-37.236363 37.189818z m261.445818 396.8a148.48 148.48 0 0 1-209.826909 0L453.818182 535.598545a26.251636 26.251636 0 0 1 0-37.189818c10.286545-10.286545 26.996364-10.286545 37.236363 0l130.699637 130.792728a95.883636 95.883636 0 0 0 163.514182-67.677091c0-25.6-9.960727-49.664-28.066909-67.677091l-130.792728-130.792728a26.251636 26.251636 0 0 1 18.664728-44.869818 26.344727 26.344727 0 0 1 18.618181 7.68l130.792728 130.792728a148.48 148.48 0 0 1-0.093091 209.733818z m-301.754182-340.386909l74.519273 74.565818a26.251636 26.251636 0 0 1 0 37.189818 26.251636 26.251636 0 0 1-37.189819 0l-74.519272-74.565818a26.251636 26.251636 0 1 1 37.189818-37.236364z"  horiz-adv-x="1024" />

    
    <glyph glyph-name="icon-tishi" unicode="&#58894;" d="M0 896h1024v-1024H0zM512 664.017455a278.341818 278.341818 0 0 0 197.957818-81.966546 278.528 278.528 0 0 0 60.043637-89.041454A277.876364 277.876364 0 0 0 792.017455 384a278.341818 278.341818 0 0 0-81.966546-197.957818 278.528 278.528 0 0 0-89.041454-60.043637 277.876364 277.876364 0 0 0-109.009455-22.016 278.341818 278.341818 0 0 0-197.957818 81.966546 278.528 278.528 0 0 0-60.043637 89.041454A277.876364 277.876364 0 0 0 231.982545 384a278.341818 278.341818 0 0 0 81.966546 197.957818 278.528 278.528 0 0 0 89.041454 60.043637A277.876364 277.876364 0 0 0 512 664.017455zM512 709.818182a325.818182 325.818182 0 0 1-325.818182-325.818182 325.818182 325.818182 0 0 1 325.818182-325.818182 325.818182 325.818182 0 0 1 325.818182 325.818182 325.818182 325.818182 0 0 1-325.818182 325.818182z m0-407.272727a25.460364 25.460364 0 0 0-25.460364 25.460363V562.827636a25.460364 25.460364 0 1 0 50.920728 0v-234.821818a25.460364 25.460364 0 0 0-25.460364-25.460363z m-28.625455-69.352728a28.625455 28.625455 0 1 1 57.25091 0 28.625455 28.625455 0 0 1-57.25091 0z"  horiz-adv-x="1024" />

    
    <glyph glyph-name="icon-tianjiajiankong" unicode="&#58895;" d="M0 896h1024v-1024H0zM643.723636 448c0 74.472727-58.973091 134.795636-131.723636 134.795636-72.797091 0-131.816727-60.369455-131.816727-134.795636s59.019636-134.749091 131.770182-134.749091c72.797091 0 131.816727 60.322909 131.816727 134.749091z m-219.461818 0c0 24.017455 9.169455 46.545455 25.739637 63.441455a86.202182 86.202182 0 0 0 124.090181 0c16.570182-16.942545 25.739636-39.424 25.739637-63.441455 0-23.970909-9.169455-46.498909-25.739637-63.441455a86.202182 86.202182 0 0 0-124.090181 0 89.972364 89.972364 0 0 0-25.739637 63.441455z m66.234182-185.157818a23.365818 23.365818 0 0 1 30.72-13.032727 24.250182 24.250182 0 0 1 12.753455 31.418181 23.365818 23.365818 0 0 1-30.72 13.032728 24.250182 24.250182 0 0 1-12.753455-31.418182z m202.379636-159.650909h-29.835636l-0.232727 0.698182-31.697455 112.360727a262.562909 262.562909 0 0 1 136.890182 231.796363C768 592.570182 653.405091 709.818182 512 709.818182 370.501818 709.818182 256 592.616727 256 448a262.516364 262.516364 0 0 1 136.145455-231.330909l-31.883637-112.779636-0.186182-0.698182H332.8a22.248727 22.248727 0 0 1-22.016-22.481455c0-12.474182 9.867636-22.528 22.016-22.528h360.075636a22.248727 22.248727 0 0 1 22.016 22.528 22.202182 22.202182 0 0 1-21.969454 22.481455z m-376.180363 260.468363a219.042909 219.042909 0 0 0-16.663273 84.340364A218.763636 218.763636 0 0 0 362.123636 601.274182a212.200727 212.200727 0 0 0 67.444364 46.545454 205.544727 205.544727 0 0 0 82.385455 16.989091c28.625455 0 56.413091-5.725091 82.478545-17.035636 25.274182-10.891636 47.895273-26.530909 67.444364-46.498909a219.042909 219.042909 0 0 0 62.138181-153.274182 218.763636 218.763636 0 0 0-62.138181-153.274182 212.200727 212.200727 0 0 0-67.444364-46.498909 206.149818 206.149818 0 0 0-82.478545-16.989091 205.870545 205.870545 0 0 0-82.478546 16.989091 210.711273 210.711273 0 0 0-67.397818 46.545455 216.901818 216.901818 0 0 0-45.381818 68.887272z m116.317091-164.724363a251.345455 251.345455 0 0 1 157.230545-0.279273l26.996364-95.418182H405.876364l27.089454 95.697455z"  horiz-adv-x="1024" />

    
    <glyph glyph-name="icon-youjian" unicode="&#58896;" d="M0 896h1024v-1024H0zM785.501091 663.272727H238.498909C209.594182 663.272727 186.181818 639.906909 186.181818 611.048727v-454.097454C186.181818 128.093091 209.594182 104.727273 238.498909 104.727273h547.002182c28.904727 0 52.317091 23.365818 52.317091 52.224V611.048727C837.818182 639.860364 814.359273 663.272727 785.501091 663.272727z m-56.040727-52.224l-194.746182-162.583272-1.163637-0.93091-1.024-1.11709a25.972364 25.972364 0 0 0-18.804363-8.09891h-0.139637a25.972364 25.972364 0 0 0-18.757818 7.912728l-1.024 0.977454-198.888727 163.84h434.548364z m56.040727-454.097454H238.498909v432.872727l219.927273-181.061818c14.801455-14.661818 34.304-22.714182 55.202909-22.714182h0.372364a77.730909 77.730909 0 0 1 55.38909 23.179636l216.203637 180.503273v-432.779636h-0.093091z"  horiz-adv-x="1024" />

    
    <glyph glyph-name="icon-zhongzhi" unicode="&#58897;" d="M0 896h1024v-1024H0zM404.247273 524.846545h254.929454l-86.993454-86.900363a26.158545 26.158545 0 0 1 18.618182-44.776727 26.344727 26.344727 0 0 1 18.618181 7.633454l130.373819 130.187636a26.437818 26.437818 0 0 1 0 37.189819L605.556364 702.091636a26.251636 26.251636 0 1 1-37.189819-37.096727l87.831273-87.645091H404.247273a216.901818 216.901818 0 0 1-154.251637-63.767273A216.436364 216.436364 0 0 1 186.181818 359.470545a26.251636 26.251636 0 0 1 52.596364 0c0 44.125091 17.221818 85.690182 48.500363 116.922182a164.538182 164.538182 0 0 0 116.968728 48.407273z m407.226182-90.20509a26.251636 26.251636 0 0 1-26.298182-26.251637c0-44.125091-17.221818-85.643636-48.500364-116.875636a164.584727 164.584727 0 0 0-117.108364-48.407273H364.683636l87.04 86.900364a26.251636 26.251636 0 1 1-37.189818 37.096727l-130.327273-130.141091a26.437818 26.437818 0 0 1 0-37.189818l134.144-133.957818a26.344727 26.344727 0 0 1 37.236364 0 26.158545 26.158545 0 0 1 0 37.143272l-87.831273 87.691637h251.904a216.901818 216.901818 0 0 1 154.251637 63.813818A216.203636 216.203636 0 0 1 837.818182 408.482909a26.344727 26.344727 0 0 1-26.344727 26.158546z"  horiz-adv-x="1024" />

    
    <glyph glyph-name="icon-zhanghao" unicode="&#58898;" d="M0 896h1024v-1024H0zM631.482182 477.090909a26.158545 26.158545 0 0 1-26.112-26.158545v-273.501091a26.158545 26.158545 0 1 1 52.270545 0V450.978909A26.158545 26.158545 0 0 1 631.482182 477.090909z m-98.769455 93.090909h-226.676363a26.158545 26.158545 0 1 1 0-52.363636h226.676363a26.158545 26.158545 0 1 1 0 52.363636z m-92.997818-139.636363H306.036364a26.158545 26.158545 0 1 1 0-52.363637h133.678545a26.158545 26.158545 0 1 1 0 52.363637z m345.832727 279.272727C814.312727 709.818182 837.818182 686.312727 837.818182 657.454545v-546.90909c0-28.858182-23.458909-52.363636-52.317091-52.363637h-60.974546a26.158545 26.158545 0 1 0 0 52.363637h60.974546V657.454545H238.498909v-546.90909h201.216a26.158545 26.158545 0 1 0 0-52.363637H238.498909C209.640727 58.181818 186.181818 81.687273 186.181818 110.545455V657.454545C186.181818 686.312727 209.640727 709.818182 238.498909 709.818182z m-167.098181-602.763637a26.112 26.112 0 1 0 26.112-45.242181 26.112 26.112 0 0 0-26.112 45.242181zM439.714909 290.909091a26.158545 26.158545 0 1 0 0-52.363636H306.036364a26.158545 26.158545 0 1 0 0 52.363636z"  horiz-adv-x="1024" />

    
    <glyph glyph-name="icon-PDF" unicode="&#58899;" d="M0 896h1024v-1024H0zM732.346182 517.771636l-168.587637 178.501819a47.010909 47.010909 0 0 1-8.936727 7.307636c-0.837818 0.512-1.675636 1.024-2.606545 1.442909A41.704727 41.704727 0 0 1 532.945455 709.818182H323.630545C299.380364 709.818182 279.272727 689.338182 279.272727 664.017455v-560.03491c0-25.320727 20.154182-45.800727 44.311273-45.800727h378.042182c24.203636 0 43.101091 20.48 43.101091 45.800727V485.515636c0 12.101818-4.235636 23.645091-12.381091 32.256zM555.380364 639.534545l121.856-128.325818h-121.856V639.581091z m145.687272-535.598545H322.932364V664.017455h188.695272v-152.762182c0-25.320727 20.154182-45.800727 44.311273-45.800728h145.035636v-361.472z m-297.565091 239.290182h-40.494545V221.090909h27.927273v40.727273h13.405091c24.529455 0 45.893818 12.846545 45.893818 41.797818-0.093091 30.114909-21.085091 39.656727-46.731637 39.656727z m-0.558545-58.554182H390.981818v35.653818h11.217455c13.498182 0 20.945455-4.468364 20.945454-16.802909 0-11.915636-6.516364-18.850909-20.154182-18.850909z m100.538182 58.554182h-33.652364V221.090909h35.234909c33.885091 0 57.297455 19.362909 57.297455 61.719273 0 42.356364-23.412364 60.462545-58.88 60.462545z m-1.722182-98.676364h-3.397818V319.767273h3.397818c18.757818 0 31.976727-8.145455 31.976727-37.096728 0-28.951273-13.218909-37.981091-31.976727-37.98109z m156.206545 74.472727v24.203637h-74.053818V221.090909h27.927273v46.452364h39.424v24.203636h-39.424v27.322182h46.08z"  horiz-adv-x="1024" />

    
    <glyph glyph-name="icon-logo" unicode="&#58900;" d="M0 896h1024v-1024H0zM512 849.454545c257.070545 0 465.454545-208.384 465.454545-465.454545s-208.384-465.454545-465.454545-465.454545S46.545455 126.929455 46.545455 384 254.929455 849.454545 512 849.454545zM364.544 494.219636c-30.161455 0-53.620364-10.053818-70.935273-30.161454-16.477091-18.990545-24.576-43.566545-24.576-73.728 0-29.882182 8.098909-54.458182 24.576-73.448727 17.314909-19.828364 40.773818-29.882182 70.656-29.882182s53.620364 10.053818 70.935273 29.882182c16.197818 18.990545 24.576 43.287273 24.576 73.448727 0 30.440727-8.378182 55.016727-24.576 74.007273-17.314909 20.107636-41.053091 29.882182-70.656 29.882181z m212.247273 0c-29.323636 0-52.503273-10.333091-69.538909-31.278545-16.197818-19.269818-24.017455-43.566545-24.017455-73.169455s8.098909-53.899636 24.296727-72.610909c17.314909-20.107636 41.890909-30.161455 73.448728-30.161454 16.477091 0 31.837091 2.234182 46.359272 6.702545 13.684364 4.468364 25.413818 10.333091 34.909091 18.152727v81.547637h-85.178182v-19.828364h62.557091v-50.827636c-6.981818-4.468364-15.36-8.378182-25.134545-11.170909-10.053818-2.792727-20.386909-4.468364-31.278546-4.468364-25.972364 0-45.521455 7.819636-58.647272 23.179636-12.288 14.522182-18.432 34.350545-18.432 59.485091 0 25.693091 6.144 46.08 18.990545 61.160728 12.846545 15.36 29.882182 22.900364 51.665455 22.900363 17.594182 0 31.837091-4.189091 42.728727-12.846545 10.333091-8.098909 17.035636-19.549091 20.107636-34.629818h22.900364c-3.630545 21.783273-12.288 38.260364-26.251636 49.710545-14.801455 12.288-34.629818 18.152727-59.485091 18.152727z m210.850909 0c-30.161455 0-53.620364-10.053818-70.935273-30.161454-16.477091-18.990545-24.576-43.566545-24.576-73.728 0-29.882182 8.098909-54.458182 24.576-73.448727 17.314909-19.828364 40.773818-29.882182 70.656-29.882182s53.620364 10.053818 70.935273 29.882182c16.197818 18.990545 24.576 43.287273 24.576 73.448727 0 30.440727-8.378182 55.016727-24.576 74.007273-17.314909 20.107636-41.053091 29.882182-70.656 29.882181z m-651.822546-3.909818h-22.621091V290.909091h137.960728v19.828364H135.819636V490.309818z m228.724364-16.477091c22.900364 0 40.773818-7.540364 53.620364-22.900363 12.288-15.080727 18.711273-35.188364 18.711272-60.602182 0-25.134545-6.423273-44.962909-18.711272-60.043637-12.846545-15.080727-30.999273-22.900364-53.899637-22.900363-22.900364 0-41.053091 7.819636-53.899636 23.458909-12.288 15.080727-18.432 34.909091-18.432 59.485091 0 24.855273 6.144 44.683636 18.432 59.764363 13.125818 15.918545 31.278545 23.738182 54.178909 23.738182z m423.098182 0c22.900364 0 40.773818-7.540364 53.620363-22.900363 12.288-15.080727 18.711273-35.188364 18.711273-60.602182 0-25.134545-6.423273-44.962909-18.711273-60.043637-12.846545-15.080727-30.999273-22.900364-53.899636-22.900363-22.900364 0-41.053091 7.819636-53.899636 23.458909-12.288 15.080727-18.432 34.909091-18.432 59.485091 0 24.855273 6.144 44.683636 18.432 59.764363 13.125818 15.918545 31.278545 23.738182 54.178909 23.738182z"  horiz-adv-x="1024" />

    
    <glyph glyph-name="icon-Word" unicode="&#58901;" d="M0 896h1024v-1024H0zM732.346182 517.771636l-168.587637 178.501819a47.010909 47.010909 0 0 1-8.936727 7.307636c-0.837818 0.512-1.675636 1.024-2.606545 1.442909A41.704727 41.704727 0 0 1 532.945455 709.818182H323.630545C299.380364 709.818182 279.272727 689.338182 279.272727 664.017455v-560.03491c0-25.320727 20.154182-45.800727 44.311273-45.800727h378.042182c24.203636 0 43.101091 20.48 43.101091 45.800727V485.515636c0 12.101818-4.235636 23.645091-12.381091 32.256zM555.380364 639.534545l121.856-128.325818h-121.856V639.581091z m145.687272-535.598545H322.932364V664.017455h188.695272v-152.762182c0-25.320727 20.154182-45.800727 44.311273-45.800728h145.035636v-361.472z m-160.488727 126.091636c-0.232727 20.712727 0 40.773818-0.372364 60.043637l-4.468363 86.434909h-36.398546l-33.047272-86.434909c-6.888727-19.549091-13.963636-39.889455-20.759273-60.043637H444.509091l2.792727 60.043637 3.025455 86.434909H405.876364l1.256727-189.812364H460.8l29.649455 82.757818c5.12 14.522182 9.821091 29.975273 14.42909 44.218182h1.256728c-0.744727-14.242909-0.884364-29.602909-0.372364-44.218182l2.420364-82.757818h54.690909l63.208727 189.812364h-41.332364l-26.158545-86.434909c-5.445818-19.549091-11.264-39.330909-16.896-60.043637h-1.117091z"  horiz-adv-x="1024" />

    


  </font>
</defs>
</svg>
